<?xml version="1.0" encoding="UTF-8"?><svg id="Layer_1" xmlns="http://www.w3.org/2000/svg" viewBox="0 0 1744.04 254.91"><defs><style>.cls-1{fill:#333;}</style></defs><path class="cls-1" d="M567.71.21h-20.99c-25.96,0-49.95,13.84-62.94,36.32l-57.98,100.3c-1.76,3.05-6.16,3.05-7.92,0l-57.98-100.3C346.92,14.06,322.93.21,296.97.21h-20.99c-3.52,0-5.72,3.81-3.96,6.86l114.39,197.9,22.46,38.86c5.75,9.95,20.12,9.96,25.88.01l22.52-38.87L571.67,7.08c1.76-3.05-.44-6.86-3.96-6.86Z"/><path class="cls-1" d="M911.15,46.54l-22.52-38.87c-5.76-9.95-20.13-9.94-25.88.01l-22.46,38.86-115.9,200.51c-1.09,1.89.27,4.25,2.45,4.25h22.12c27.12,0,52.19-14.46,65.76-37.95h0s121.99,0,121.99,0h0c13.57,23.48,38.64,37.95,65.76,37.95h22.12c2.18,0,3.55-2.36,2.45-4.25l-115.9-200.51ZM907.5,167.44h-63.57c-1.18,0-1.92-1.28-1.33-2.31l31.13-53.86c.88-1.53,3.09-1.53,3.97,0l31.13,53.86c.59,1.03-.15,2.31-1.33,2.31Z"/><path class="cls-1" d="M307.16,242.31l-67.65-117.18-29.52-51.13-35.25-61.05c-.47-.96-1-1.88-1.6-2.76v-.02C168.99,4.04,161.96,0,153.99,0s-15,4.04-19.15,10.18c0,0,0,.01,0,.02-.59.88-1.13,1.8-1.6,2.77l-35.27,61.09s0,0,0,0l-29.49,51.09L.7,242.52c-.05.09-.11.18-.15.27C.2,243.44,0,244.18,0,244.97,0,246.92,1.19,248.58,2.89,249.28c.15.06.31.12.46.16,8.01,2.75,16.47,4.5,25.25,5.17,1.94.15,3.89.26,5.86.3h3.77c2.15-.04,4.27-.15,6.38-.32,47.81-3.88,86.23-40.99,92-88.24l-.03-.09-46.23-16.51-.06-.02c-.35-.13-.61-.47-.61-.87s.27-.76.64-.89h.02s44.61-15.93,44.61-15.93l1.61-.57,16.51-46.23.02-.05c.13-.36.47-.61.88-.61s.72.24.86.57l.03.1,16.49,46.23,1.64.58,44.67,15.94h0c.33.15.57.48.57.86s-.23.71-.56.86h-.04s-46.28,16.54-46.28,16.54c6.07,49.81,48.41,88.42,99.82,88.65h.92c2.16,0,4.29-.18,6.42-.33,9.01-.61,17.71-2.35,25.92-5.15.1-.03.19-.07.28-.1.15-.05.3-.1.45-.15,0,0,.01,0,.02,0,1.63-.72,2.77-2.35,2.77-4.24,0-.92-.28-1.78-.74-2.5l-.06-.11Z"/><path class="cls-1" d="M1427.64.43c-29.18,0-52.84,23.66-52.84,52.84v190.15c0,4.5,3.65,8.15,8.15,8.15h44.68c4.5,0,8.15-3.65,8.15-8.15V8.59c0-4.5-3.65-8.15-8.15-8.15Z"/><path class="cls-1" d="M666.64.43h0c-29.18,0-52.84,23.66-52.84,52.84v190.15c0,4.5,3.65,8.15,8.15,8.15h44.68c4.5,0,8.15-3.65,8.15-8.15V8.59c0-4.5-3.65-8.15-8.15-8.15Z"/><path class="cls-1" d="M1254.92,157.54c2.76-1.12,5.46-2.36,8.1-3.74,13.99-7.29,25.11-17.28,33.37-29.96,8.25-12.67,12.38-27.03,12.38-43.05s-3.77-30.43-11.3-42.51c-7.53-12.07-18.18-21.4-31.93-27.98-13.76-6.58-30.32-9.87-49.69-9.87h-130.92c-4.58,0-8.29,3.71-8.29,8.29v234.57c0,4.58,3.71,8.29,8.29,8.29h41.27c4.73,0,8.56-3.83,8.56-8.56v-69.97c0-4.58,3.71-8.29,8.29-8.29h46.94l30.21,42.24c20.01,27.98,52.29,44.58,86.69,44.58h10.56c2.21,0,3.5-2.51,2.2-4.3l-64.73-89.72ZM1134.76,109.82v-50.16c0-4.58,3.71-8.29,8.29-8.29h64.18c7.65,0,14.47,1.32,20.45,3.95,5.98,2.63,10.76,6.4,14.35,11.3,3.59,4.91,5.38,10.58,5.38,17.04,0,6.94-1.79,12.98-5.38,18.12-3.59,5.15-8.25,9.15-13.99,12.02-5.74,2.87-12.08,4.3-19.01,4.3h-65.98c-4.58,0-8.29-3.71-8.29-8.29Z"/><path class="cls-1" d="M1567.31,67.42h123.3c29.5,0,53.42-23.92,53.42-53.42v-7.53s-.02-.04-.04-.04h-177.03c-27.85,0-52.11,15.38-64.75,38.11-5.93,10.65-9.32,22.91-9.32,35.96,0,5.55.63,10.95,1.79,16.15,7.37,33.14,36.93,57.92,72.29,57.92h97.22c11.11,0,19.97,9.6,18.74,20.96-1.05,9.64-9.57,16.74-19.26,16.74h-117.31c-29.52,0-53.46,23.93-53.46,53.46v7.5s.02.04.04.04h171.26c36.87,0,67.88-24.99,77.06-58.96,1.8-6.66,2.78-13.66,2.78-20.88s-.98-14.23-2.78-20.88c-9.18-33.96-40.2-58.96-77.06-58.96h-96.41c-7.22,0-13.44-5.65-13.55-12.87-.11-7.32,5.79-13.29,13.08-13.29Z"/></svg>