<?xml version="1.0" encoding="UTF-8"?><svg id="Layer_1" xmlns="http://www.w3.org/2000/svg" viewBox="0 0 610.24 505.1"><defs><style>.cls-1{fill:#fff;}</style></defs><path class="cls-1" d="M608.64,480.15l-134.05-232.19-58.49-101.31-69.84-120.97c-.93-1.9-1.99-3.73-3.16-5.48l-.02-.03c-8.22-12.17-22.15-20.17-37.94-20.17s-29.72,8-37.94,20.17c0,.01-.01.02-.02.03-1.18,1.74-2.23,3.58-3.16,5.48l-69.89,121.05s0,0,0,0l-58.44,101.23L1.39,480.56c-.11.17-.21.35-.31.53-.69,1.29-1.08,2.76-1.08,4.33,0,3.85,2.36,7.15,5.72,8.53.3.12.61.23.92.32,15.87,5.45,32.64,8.92,50.03,10.24,3.85.29,7.71.52,11.62.59h7.47c4.25-.08,8.47-.29,12.65-.63,94.74-7.68,170.86-81.23,182.3-174.84l-.06-.17-91.6-32.71-.11-.04c-.7-.26-1.2-.94-1.2-1.73s.53-1.51,1.26-1.75l.04-.02,88.4-31.54,3.19-1.14,32.71-91.6.04-.1c.26-.71.94-1.21,1.74-1.21s1.43.47,1.71,1.13l.07.19,32.68,91.6,3.25,1.16,88.51,31.58h.02c.66.29,1.13.95,1.13,1.71s-.46,1.42-1.12,1.7l-.07.03-91.7,32.74c12.04,98.71,95.93,175.2,197.79,175.66h1.82c4.29-.02,8.5-.36,12.72-.64,17.86-1.2,35.09-4.65,51.36-10.2.19-.06.38-.13.56-.2.3-.1.59-.2.89-.31.01,0,.03-.01.04-.02,3.23-1.43,5.48-4.65,5.48-8.41,0-1.83-.55-3.53-1.47-4.96l-.13-.22Z"/></svg>